<?xml version="1.0" encoding="utf-8"?>
<!-- Generator: Adobe Illustrator 16.0.2, SVG Export Plug-In . SVG Version: 6.00 Build 0)  -->
<!DOCTYPE svg PUBLIC "-//W3C//DTD SVG 1.1//EN" "http://www.w3.org/Graphics/SVG/1.1/DTD/svg11.dtd">
<svg version="1.1" id="Layer_2" xmlns="http://www.w3.org/2000/svg" xmlns:xlink="http://www.w3.org/1999/xlink" x="0px" y="0px"
	 width="841.89px" height="595.28px" viewBox="0 0 841.89 595.28" enable-background="new 0 0 841.89 595.28" xml:space="preserve">
<g>
	<path d="M143.993,453.2l7.698-0.673c0.364,3.088,1.211,5.616,2.546,7.596c1.331,1.974,3.399,3.573,6.204,4.795
		c2.804,1.218,5.96,1.831,9.465,1.831c3.113,0,5.861-0.464,8.245-1.39c2.384-0.926,4.157-2.196,5.32-3.806
		c1.164-1.614,1.747-3.374,1.747-5.281c0-1.935-0.561-3.626-1.683-5.067c-1.122-1.446-2.972-2.656-5.553-3.639
		c-1.655-0.645-5.314-1.649-10.979-3.008c-5.665-1.362-9.633-2.646-11.905-3.851c-2.945-1.542-5.14-3.458-6.583-5.741
		c-1.446-2.289-2.167-4.845-2.167-7.681c0-3.108,0.883-6.021,2.65-8.726c1.767-2.708,4.347-4.759,7.741-6.162
		c3.394-1.401,7.165-2.106,11.316-2.106c4.571,0,8.602,0.737,12.096,2.211c3.489,1.47,6.175,3.639,8.055,6.499
		c1.878,2.86,2.888,6.097,3.028,9.719l-7.824,0.585c-0.421-3.894-1.845-6.839-4.269-8.83c-2.428-1.991-6.01-2.988-10.75-2.988
		c-4.936,0-8.533,0.905-10.789,2.712c-2.26,1.811-3.388,3.99-3.388,6.542c0,2.216,0.799,4.039,2.397,5.47
		c1.571,1.43,5.671,2.896,12.304,4.394c6.632,1.502,11.183,2.814,13.651,3.936c3.59,1.654,6.24,3.749,7.951,6.289
		c1.71,2.537,2.565,5.461,2.565,8.771c0,3.28-0.938,6.374-2.818,9.275c-1.879,2.903-4.579,5.16-8.097,6.774
		c-3.521,1.609-7.482,2.416-11.885,2.416c-5.581,0-10.258-0.813-14.028-2.437c-3.774-1.627-6.731-4.073-8.878-7.344
		C145.234,461.021,144.104,457.326,143.993,453.2z"/>
	<path d="M233.848,458.629l7.824,0.965c-1.233,4.575-3.52,8.121-6.857,10.646c-3.337,2.523-7.601,3.786-12.789,3.786
		c-6.534,0-11.716-2.013-15.543-6.038c-3.829-4.022-5.743-9.668-5.743-16.932c0-7.515,1.935-13.349,5.805-17.498
		c3.871-4.152,8.89-6.227,15.06-6.227c5.974,0,10.854,2.035,14.64,6.102c3.786,4.066,5.679,9.788,5.679,17.163
		c0,0.449-0.014,1.121-0.042,2.018h-33.317c0.281,4.908,1.668,8.663,4.165,11.275c2.496,2.604,5.609,3.911,9.339,3.911
		c2.776,0,5.146-0.73,7.109-2.188C231.141,464.152,232.698,461.825,233.848,458.629z M208.986,446.389h24.945
		c-0.336-3.758-1.29-6.578-2.86-8.456c-2.412-2.918-5.539-4.375-9.381-4.375c-3.478,0-6.402,1.165-8.772,3.488
		C210.548,439.377,209.239,442.49,208.986,446.389z"/>
	<path d="M251.095,473.016v-44.675h6.815v6.774c1.739-3.17,3.343-5.262,4.817-6.271c1.471-1.011,3.091-1.514,4.858-1.514
		c2.552,0,5.146,0.813,7.782,2.44l-2.608,7.025c-1.851-1.097-3.701-1.643-5.552-1.643c-1.655,0-3.142,0.497-4.459,1.496
		c-1.317,0.992-2.257,2.375-2.818,4.143c-0.842,2.69-1.262,5.636-1.262,8.832v23.391H251.095z"/>
	<path d="M292.278,473.016l-16.995-44.675h7.993l9.591,26.754c1.038,2.889,1.991,5.89,2.861,9.002
		c0.673-2.356,1.613-5.188,2.818-8.497l9.928-27.259h7.782l-16.911,44.675H292.278z"/>
	<path d="M322.987,420.051v-8.705h7.572v8.705H322.987z M322.987,473.016v-44.675h7.572v44.675H322.987z"/>
	<path d="M371.238,456.653l7.446,0.966c-0.814,5.132-2.897,9.15-6.249,12.051c-3.351,2.904-7.466,4.355-12.345,4.355
		c-6.114,0-11.03-2-14.746-5.993c-3.716-3.998-5.573-9.725-5.573-17.188c0-4.819,0.799-9.042,2.398-12.66
		c1.598-3.617,4.03-6.33,7.298-8.141c3.267-1.807,6.822-2.712,10.665-2.712c4.852,0,8.82,1.226,11.905,3.681
		c3.085,2.452,5.062,5.938,5.932,10.453l-7.362,1.135c-0.701-2.997-1.943-5.257-3.724-6.771s-3.932-2.271-6.456-2.271
		c-3.815,0-6.914,1.365-9.297,4.101c-2.384,2.732-3.576,7.06-3.576,12.978c0,6.002,1.15,10.364,3.449,13.085
		c2.3,2.721,5.301,4.079,9.003,4.079c2.973,0,5.455-0.91,7.446-2.732C369.443,463.245,370.705,460.436,371.238,456.653z"/>
	<path d="M385.204,420.051v-8.705h7.572v8.705H385.204z M385.204,473.016v-44.675h7.572v44.675H385.204z"/>
	<path d="M401.484,450.676c0-8.269,2.3-14.399,6.899-18.382c3.842-3.309,8.525-4.963,14.049-4.963
		c6.144,0,11.165,2.011,15.059,6.037c3.902,4.022,5.849,9.583,5.849,16.678c0,5.751-0.864,10.272-2.588,13.566
		c-1.722,3.298-4.235,5.857-7.531,7.681c-3.294,1.819-6.89,2.732-10.788,2.732c-6.254,0-11.31-2.004-15.164-6.019
		C403.411,464.001,401.484,458.225,401.484,450.676z M409.267,450.676c0,5.721,1.248,10.008,3.744,12.852
		c2.496,2.85,5.636,4.272,9.422,4.272c3.759,0,6.886-1.432,9.381-4.292c2.497-2.86,3.747-7.22,3.747-13.081
		c0-5.523-1.259-9.711-3.766-12.559c-2.513-2.845-5.631-4.268-9.362-4.268c-3.786,0-6.926,1.414-9.422,4.247
		C410.514,440.68,409.267,444.955,409.267,450.676z"/>
</g>
<path d="M186.668,549.854l8.161,2.063c-1.71,6.704-4.79,11.811-9.234,15.333c-4.445,3.519-9.878,5.276-16.3,5.276
	c-6.647,0-12.053-1.351-16.216-4.058c-4.166-2.706-7.335-6.623-9.506-11.759c-2.176-5.129-3.261-10.642-3.261-16.531
	c0-6.421,1.225-12.023,3.682-16.807c2.451-4.779,5.943-8.414,10.472-10.893c4.529-2.483,9.516-3.727,14.956-3.727
	c6.17,0,11.358,1.575,15.564,4.711c4.207,3.146,7.137,7.561,8.792,13.254l-8.035,1.892c-1.431-4.483-3.506-7.753-6.226-9.8
	c-2.72-2.048-6.142-3.07-10.265-3.07c-4.739,0-8.701,1.136-11.882,3.406c-3.186,2.271-5.421,5.321-6.711,9.15
	c-1.29,3.826-1.935,7.776-1.935,11.844c0,5.244,0.763,9.819,2.292,13.733c1.528,3.91,3.906,6.834,7.131,8.771
	c3.226,1.935,6.717,2.903,10.475,2.903c4.571,0,8.441-1.317,11.611-3.957C183.401,558.956,185.546,555.042,186.668,549.854z"/>
<path d="M233.068,565.964c-2.805,2.387-5.505,4.07-8.098,5.047c-2.596,0.981-5.378,1.476-8.351,1.476
	c-4.908,0-8.68-1.198-11.316-3.599c-2.637-2.396-3.955-5.461-3.955-9.19c0-2.188,0.497-4.187,1.495-5.993
	c0.994-1.812,2.297-3.262,3.911-4.355c1.612-1.094,3.429-1.919,5.448-2.479c1.486-0.393,3.73-0.773,6.73-1.139
	c6.114-0.729,10.615-1.598,13.503-2.608c0.028-1.037,0.042-1.694,0.042-1.974c0-3.086-0.715-5.262-2.146-6.523
	c-1.935-1.711-4.81-2.563-8.624-2.563c-3.562,0-6.192,0.621-7.889,1.87c-1.696,1.247-2.951,3.457-3.764,6.622l-7.403-1.009
	c0.673-3.165,1.78-5.725,3.323-7.677c1.542-1.946,3.771-3.449,6.688-4.499c2.917-1.054,6.296-1.578,10.138-1.578
	c3.815,0,6.914,0.448,9.297,1.346s4.137,2.028,5.258,3.386c1.122,1.363,1.907,3.081,2.356,5.152
	c0.252,1.294,0.378,3.621,0.378,6.987v10.096c0,7.039,0.161,11.491,0.483,13.353c0.323,1.868,0.962,3.655,1.916,5.365h-7.909
	C233.797,569.905,233.292,568.071,233.068,565.964z M232.437,549.056c-2.748,1.122-6.871,2.075-12.368,2.86
	c-3.113,0.448-5.315,0.954-6.604,1.515c-1.291,0.562-2.286,1.378-2.987,2.461c-0.701,1.076-1.052,2.278-1.052,3.598
	c0,2.018,0.763,3.702,2.292,5.048c1.528,1.346,3.766,2.02,6.71,2.02c2.917,0,5.511-0.642,7.783-1.915
	c2.271-1.279,3.94-3.021,5.005-5.241c0.813-1.707,1.22-4.23,1.22-7.572V549.056z"/>
<path d="M251.83,571.476v-44.675h6.815v6.351c3.281-4.905,8.021-7.36,14.218-7.36c2.692,0,5.166,0.484,7.425,1.45
	c2.256,0.969,3.947,2.239,5.069,3.811c1.121,1.569,1.907,3.434,2.356,5.593c0.28,1.402,0.42,3.857,0.42,7.364v27.467h-7.572v-27.175
	c0-3.086-0.294-5.393-0.883-6.919c-0.589-1.531-1.635-2.748-3.135-3.661c-1.5-0.91-3.259-1.367-5.278-1.367
	c-3.225,0-6.01,1.026-8.351,3.072c-2.342,2.048-3.511,5.93-3.511,11.65v24.399H251.83z"/>
<path d="M328.896,565.964c-2.804,2.387-5.505,4.07-8.097,5.047c-2.596,0.981-5.379,1.476-8.352,1.476
	c-4.908,0-8.68-1.198-11.316-3.599c-2.636-2.396-3.955-5.461-3.955-9.19c0-2.188,0.497-4.187,1.495-5.993
	c0.993-1.812,2.298-3.262,3.91-4.355c1.613-1.094,3.43-1.919,5.449-2.479c1.487-0.393,3.73-0.773,6.731-1.139
	c6.114-0.729,10.615-1.598,13.504-2.608c0.027-1.037,0.042-1.694,0.042-1.974c0-3.086-0.715-5.262-2.146-6.523
	c-1.935-1.711-4.81-2.563-8.624-2.563c-3.562,0-6.192,0.621-7.889,1.87c-1.697,1.247-2.951,3.457-3.764,6.622l-7.404-1.009
	c0.673-3.165,1.781-5.725,3.323-7.677c1.543-1.946,3.772-3.449,6.688-4.499c2.917-1.054,6.296-1.578,10.138-1.578
	c3.814,0,6.914,0.448,9.297,1.346c2.383,0.897,4.136,2.028,5.258,3.386c1.122,1.363,1.907,3.081,2.355,5.152
	c0.252,1.294,0.379,3.621,0.379,6.987v10.096c0,7.039,0.16,11.491,0.482,13.353c0.322,1.868,0.962,3.655,1.915,5.365h-7.908
	C329.625,569.905,329.121,568.071,328.896,565.964z M328.266,549.056c-2.749,1.122-6.871,2.075-12.368,2.86
	c-3.113,0.448-5.314,0.954-6.604,1.515c-1.291,0.562-2.285,1.378-2.987,2.461c-0.701,1.076-1.051,2.278-1.051,3.598
	c0,2.018,0.763,3.702,2.291,5.048s3.767,2.02,6.71,2.02c2.917,0,5.511-0.642,7.783-1.915c2.271-1.279,3.94-3.021,5.006-5.241
	c0.813-1.707,1.22-4.23,1.22-7.572V549.056z"/>
<path d="M347.574,571.476v-44.675h6.815v6.774c1.738-3.169,3.343-5.26,4.818-6.27c1.47-1.01,3.091-1.515,4.857-1.515
	c2.552,0,5.146,0.813,7.782,2.439l-2.608,7.028c-1.851-1.1-3.702-1.643-5.553-1.643c-1.654,0-3.141,0.497-4.459,1.494
	c-1.317,0.993-2.257,2.376-2.818,4.142c-0.842,2.693-1.263,5.638-1.263,8.835v23.389H347.574z"/>
<path d="M376.39,518.512v-8.706h7.572v8.706H376.39z M376.39,571.476v-44.675h7.572v44.675H376.39z"/>
<path d="M392.67,549.137c0-8.27,2.3-14.398,6.899-18.381c3.842-3.311,8.525-4.965,14.05-4.965c6.142,0,11.161,2.011,15.061,6.038
	c3.899,4.021,5.848,9.583,5.848,16.679c0,5.748-0.866,10.272-2.589,13.565c-1.722,3.296-4.234,5.857-7.53,7.68
	c-3.295,1.819-6.891,2.733-10.789,2.733c-6.253,0-11.31-2.004-15.164-6.018C394.597,562.461,392.67,556.684,392.67,549.137z
	 M400.452,549.137c0,5.721,1.248,10.007,3.744,12.852c2.496,2.849,5.637,4.271,9.423,4.271c3.758,0,6.885-1.43,9.381-4.29
	c2.495-2.86,3.743-7.219,3.743-13.08c0-5.525-1.255-9.712-3.766-12.561c-2.509-2.846-5.628-4.267-9.358-4.267
	c-3.786,0-6.927,1.413-9.423,4.246C401.7,539.141,400.452,543.414,400.452,549.137z"/>
<path d="M500.424,571.476v-5.637c-2.833,4.432-7,6.647-12.493,6.647c-3.564,0-6.838-0.982-9.824-2.946
	c-2.988-1.962-5.299-4.703-6.942-8.226c-1.639-3.516-2.459-7.563-2.459-12.134c0-4.459,0.741-8.506,2.23-12.136
	c1.483-3.635,3.714-6.417,6.687-8.35c2.974-1.938,6.295-2.904,9.974-2.904c2.69,0,5.087,0.569,7.19,1.703
	c2.104,1.138,3.814,2.616,5.132,4.438v-22.127h7.532v61.67H500.424z M476.489,549.181c0,5.722,1.202,9.999,3.613,12.831
	c2.412,2.833,5.261,4.247,8.541,4.247c3.312,0,6.123-1.353,8.435-4.058c2.315-2.709,3.474-6.839,3.474-12.393
	c0-6.109-1.179-10.601-3.534-13.46c-2.356-2.861-5.26-4.287-8.709-4.287c-3.366,0-6.178,1.374-8.435,4.117
	C477.615,538.932,476.489,543.263,476.489,549.181z"/>
<path d="M549.938,557.089l7.826,0.966c-1.234,4.575-3.522,8.122-6.859,10.645c-3.337,2.524-7.602,3.787-12.789,3.787
	c-6.535,0-11.715-2.012-15.54-6.038c-3.831-4.023-5.742-9.667-5.742-16.932c0-7.516,1.931-13.349,5.802-17.5
	c3.87-4.15,8.891-6.226,15.063-6.226c5.97,0,10.85,2.035,14.64,6.102c3.781,4.066,5.677,9.787,5.677,17.163
	c0,0.448-0.016,1.122-0.044,2.02h-33.317c0.281,4.908,1.672,8.662,4.167,11.274c2.496,2.604,5.608,3.909,9.339,3.909
	c2.776,0,5.144-0.728,7.111-2.187C547.229,562.613,548.788,560.286,549.938,557.089z M525.079,544.85h24.943
	c-0.338-3.758-1.291-6.578-2.86-8.458c-2.412-2.917-5.541-4.375-9.383-4.375c-3.479,0-6.398,1.167-8.771,3.49
	C526.641,537.839,525.326,540.952,525.079,544.85z"/>
<path d="M593.499,551.66l7.7-0.673c0.361,3.089,1.21,5.617,2.545,7.595c1.33,1.977,3.396,3.576,6.205,4.797
	c2.802,1.218,5.957,1.832,9.464,1.832c3.112,0,5.861-0.465,8.244-1.392c2.385-0.926,4.158-2.194,5.321-3.806
	c1.165-1.614,1.746-3.374,1.746-5.281c0-1.935-0.562-3.625-1.682-5.067c-1.123-1.446-2.974-2.655-5.554-3.638
	c-1.654-0.645-5.316-1.651-10.979-3.009c-5.667-1.362-9.634-2.645-11.905-3.851c-2.945-1.542-5.141-3.457-6.583-5.741
	c-1.447-2.287-2.167-4.843-2.167-7.68c0-3.109,0.881-6.022,2.651-8.726c1.763-2.709,4.343-4.76,7.741-6.162
	c3.389-1.402,7.164-2.107,11.313-2.107c4.571,0,8.603,0.737,12.095,2.212c3.49,1.471,6.175,3.637,8.058,6.498
	c1.875,2.861,2.885,6.098,3.028,9.72l-7.828,0.584c-0.417-3.895-1.843-6.837-4.267-8.829c-2.428-1.991-6.011-2.989-10.75-2.989
	c-4.937,0-8.533,0.906-10.788,2.713c-2.261,1.811-3.386,3.99-3.386,6.542c0,2.216,0.797,4.039,2.396,5.469
	c1.57,1.43,5.673,2.896,12.304,4.396c6.636,1.502,11.182,2.813,13.649,3.934c3.59,1.654,6.242,3.75,7.953,6.29
	c1.71,2.535,2.567,5.461,2.567,8.771c0,3.281-0.94,6.374-2.82,9.274c-1.879,2.903-4.579,5.16-8.097,6.774
	c-3.521,1.611-7.483,2.416-11.887,2.416c-5.581,0-10.258-0.813-14.025-2.436c-3.775-1.626-6.73-4.074-8.878-7.343
	C594.74,559.481,593.61,555.786,593.499,551.66z"/>
<path d="M681.925,565.964c-2.806,2.387-5.506,4.07-8.097,5.047c-2.598,0.981-5.383,1.476-8.355,1.476
	c-4.906,0-8.677-1.198-11.313-3.599c-2.637-2.396-3.955-5.461-3.955-9.19c0-2.188,0.497-4.187,1.494-5.993
	c0.994-1.812,2.301-3.262,3.911-4.355c1.614-1.094,3.429-1.919,5.448-2.479c1.486-0.393,3.73-0.773,6.731-1.139
	c6.112-0.729,10.612-1.598,13.502-2.608c0.027-1.037,0.043-1.694,0.043-1.974c0-3.086-0.717-5.262-2.144-6.523
	c-1.939-1.711-4.812-2.563-8.626-2.563c-3.561,0-6.189,0.621-7.888,1.87c-1.695,1.247-2.954,3.457-3.767,6.622l-7.404-1.009
	c0.674-3.165,1.783-5.725,3.327-7.677c1.541-1.946,3.77-3.449,6.689-4.499c2.913-1.054,6.294-1.578,10.136-1.578
	c3.814,0,6.911,0.448,9.295,1.346s4.139,2.028,5.261,3.386c1.121,1.363,1.907,3.081,2.355,5.152c0.252,1.294,0.38,3.621,0.38,6.987
	v10.096c0,7.039,0.161,11.491,0.481,13.353c0.326,1.868,0.962,3.655,1.916,5.365h-7.908
	C682.653,569.905,682.148,568.071,681.925,565.964z M681.292,549.056c-2.749,1.122-6.872,2.075-12.364,2.86
	c-3.117,0.448-5.316,0.954-6.607,1.515c-1.29,0.562-2.286,1.378-2.983,2.461c-0.706,1.076-1.054,2.278-1.054,3.598
	c0,2.018,0.764,3.702,2.291,5.048c1.531,1.346,3.766,2.02,6.711,2.02c2.916,0,5.513-0.642,7.78-1.915
	c2.274-1.279,3.942-3.021,5.007-5.241c0.814-1.707,1.22-4.23,1.22-7.572V549.056z"/>
<path d="M700.518,571.476v-61.67h7.572v61.67H700.518z"/>
<path d="M749.107,571.476v-6.563c-3.482,5.048-8.205,7.573-14.18,7.573c-2.636,0-5.095-0.506-7.383-1.515
	c-2.284-1.011-3.983-2.281-5.088-3.807c-1.11-1.531-1.888-3.401-2.336-5.616c-0.309-1.487-0.462-3.844-0.462-7.067v-27.681h7.572
	v24.779c0,3.95,0.153,6.618,0.461,7.989c0.478,1.994,1.486,3.558,3.03,4.69c1.541,1.138,3.449,1.704,5.721,1.704
	c2.271,0,4.402-0.582,6.393-1.743c1.991-1.166,3.402-2.749,4.229-4.756c0.828-2.003,1.241-4.912,1.241-8.727v-23.938h7.571v44.675
	H749.107z"/>
<path d="M796.727,571.476v-5.637c-2.833,4.432-6.999,6.647-12.492,6.647c-3.565,0-6.838-0.982-9.823-2.946
	c-2.988-1.962-5.3-4.703-6.942-8.226c-1.64-3.516-2.461-7.563-2.461-12.134c0-4.459,0.742-8.506,2.232-12.136
	c1.482-3.635,3.714-6.417,6.686-8.35c2.974-1.938,6.295-2.904,9.973-2.904c2.692,0,5.087,0.569,7.191,1.703
	c2.104,1.138,3.814,2.616,5.131,4.438v-22.127h7.533v61.67H796.727z M772.793,549.181c0,5.722,1.201,9.999,3.613,12.831
	c2.411,2.833,5.26,4.247,8.542,4.247c3.31,0,6.121-1.353,8.433-4.058c2.315-2.709,3.474-6.839,3.474-12.393
	c0-6.109-1.177-10.601-3.533-13.46c-2.356-2.861-5.261-4.287-8.711-4.287c-3.365,0-6.177,1.374-8.433,4.117
	C773.918,538.932,772.793,543.263,772.793,549.181z"/>
<rect x="35.508" y="130.366" fill="#1C6CA6" width="104.614" height="104.614"/>
<rect x="142.687" y="237.545" fill="#1C6CA6" width="104.614" height="104.614"/>
<rect x="142.687" y="25.752" fill="#1C6CA6" width="104.614" height="104.614"/>
<rect x="465.76" y="130.366" fill="#F4F62A" width="104.615" height="104.614"/>
<rect x="358.582" y="237.545" fill="#F4F62A" width="104.616" height="104.614"/>
<rect x="358.582" y="25.752" fill="#F4F62A" width="104.616" height="104.614"/>
</svg>
